<svg xmlns="http://www.w3.org/2000/svg" xmlns:xlink="http://www.w3.org/1999/xlink" width="72.409" height="10" viewBox="0 0 72.409 10">
  <defs>
    <clipPath id="clip-path">
      <rect width="72.409" height="10" fill="none"/>
    </clipPath>
  </defs>
  <g id="rate" clip-path="url(#clip-path)">
    <path id="star" d="M512.193,1638.648l-3.355,2.326.985,3.78-3.26-2.283-3.47,2.162,1.34-3.738-3.129-2.443,4.088-.027,1.536-3.672,1.186,3.721Z" transform="translate(-470.543 -1634.753)" fill="#ffc600"/>
    <path id="star_copy_3" data-name="star copy 3" d="M496.812,1638.648l-3.355,2.326.985,3.78-3.26-2.283-3.47,2.162,1.34-3.738-3.129-2.443,4.088-.027,1.536-3.672,1.186,3.721Z" transform="translate(-470.543 -1634.753)" fill="#ffc600"/>
    <path id="star_copy_4" data-name="star copy 4" d="M481.432,1638.648l-3.355,2.326.985,3.78-3.26-2.283-3.47,2.162,1.34-3.738-3.129-2.443,4.088-.027,1.536-3.672,1.186,3.721Z" transform="translate(-470.543 -1634.753)" fill="#ffc600"/>
    <path id="star_copy" data-name="star copy" d="M527.572,1638.648l-3.355,2.326.985,3.78-3.26-2.283-3.47,2.162,1.34-3.738-3.129-2.443,4.088-.027,1.536-3.672,1.186,3.721Z" transform="translate(-470.543 -1634.753)" fill="#ffc600"/>
    <path id="star_copy_2" data-name="star copy 2" d="M542.953,1638.648l-3.355,2.326.985,3.78-3.26-2.283-3.47,2.162,1.34-3.738-3.129-2.443,4.088-.027,1.536-3.672,1.186,3.721Z" transform="translate(-470.543 -1634.753)" fill="#c1c8ce"/>
  </g>
</svg>
